<svg xmlns="http://www.w3.org/2000/svg" viewBox="0 0 180 220" fill="none"><defs><linearGradient id="leaf" x1="32" y1="188" x2="150" y2="22" gradientUnits="userSpaceOnUse"><stop stop-color="#0D8F55"/><stop offset=".5" stop-color="#1DB854"/><stop offset="1" stop-color="#55E58F"/></linearGradient><linearGradient id="shine" x1="72" y1="190" x2="135" y2="42" gradientUnits="userSpaceOnUse"><stop stop-color="#0B0B0D"/><stop offset="1" stop-color="#06130D"/></linearGradient></defs><path d="M33 190C20 145 30 93 62 58 91 27 125 17 157 16c2 39-10 75-37 105-24 26-53 45-87 69Z" fill="url(#leaf)"/><path d="M42 181c22-29 45-52 70-73 23-20 38-42 44-67-3 39-18 72-44 99-20 20-43 34-70 41Z" fill="url(#shine)"/><path d="M42 181c16-43 37-78 63-105 18-19 36-35 52-47" stroke="#B8FFD2" stroke-opacity=".45" stroke-width="3" stroke-linecap="round"/><path d="M69 151c17-6 32-15 46-28" stroke="#D4AF37" stroke-opacity=".75" stroke-width="2" stroke-linecap="round"/></svg>