<svg xmlns="http://www.w3.org/2000/svg" viewBox="0 0 220 260" fill="none"><defs><linearGradient id="g" x1="35" y1="20" x2="180" y2="240" gradientUnits="userSpaceOnUse"><stop stop-color="#B8FFD2"/><stop offset=".48" stop-color="#22C878"/><stop offset="1" stop-color="#D4AF37"/></linearGradient></defs><path d="M110 180V82" stroke="url(#g)" stroke-width="5" stroke-linecap="round"/><path d="M110 95C72 91 39 68 35 28c38 0 72 20 75 58" stroke="url(#g)" stroke-width="5" stroke-linecap="round" stroke-linejoin="round"/><path d="M112 78c8-39 38-66 78-69-2 42-27 70-78 82" stroke="url(#g)" stroke-width="5" stroke-linecap="round" stroke-linejoin="round"/><path d="M110 178c-9 18-8 34-1 47m1-47c10 18 12 34 8 48m-8-37c-25 10-39 21-53 37m55-25c22 8 37 20 50 34m-70-13c-13 3-24 8-36 18m55-13c17 2 31 8 43 17m-68 8c-9 2-17 6-25 12m50-10c11 1 20 4 29 10" stroke="url(#g)" stroke-width="3" stroke-linecap="round"/><circle cx="110" cy="180" r="4" fill="#D4AF37"/></svg>